<svg viewBox="0 0 591 565" fill="none" xmlns="http://www.w3.org/2000/svg">
<g clip-path="url(#clip0_166_131)">
<path d="M536.255 435.372C587.9 388.623 606.248 324.735 577.237 292.674C548.227 260.613 482.842 272.519 431.197 319.267C379.552 366.015 361.204 429.903 390.215 461.965C419.226 494.026 484.61 482.12 536.255 435.372Z" fill="#F2F2F2"/>
<path d="M385.993 563.346C379.028 548.956 376.562 532.743 377.774 516.868C379.09 501.094 383.743 485.78 391.424 471.94C398.882 458.583 408.342 446.449 419.476 435.959C431.172 424.752 444.362 415.239 458.239 406.924C472.892 398.144 488.29 390.683 503.867 383.702C505.808 382.832 507.752 381.968 509.7 381.112C510.978 380.549 509.872 378.675 508.602 379.234C492.721 386.228 476.973 393.599 461.914 402.247C447.527 410.509 433.763 419.961 421.466 431.13C409.879 441.491 399.896 453.517 391.844 466.814C383.602 480.496 378.257 495.726 376.141 511.56C374.11 527.505 375.68 544.087 381.724 559.049C382.461 560.873 383.258 562.672 384.115 564.444C384.725 565.703 386.6 564.602 385.993 563.346Z" fill="#E6E6E6"/>
<path d="M445.974 412.47C445.255 400.612 446.147 388.711 448.626 377.092C451.097 365.467 455.108 354.224 460.553 343.661C463.619 337.731 467.131 332.043 471.061 326.647C471.886 325.514 470 324.428 469.183 325.549C462.123 335.276 456.408 345.912 452.193 357.169C447.969 368.427 445.259 380.196 444.133 392.168C443.498 398.917 443.387 405.704 443.799 412.47C443.884 413.861 446.059 413.871 445.974 412.47H445.974Z" fill="#E6E6E6"/>
<path d="M213.308 394.694C280.53 333.846 304.412 250.689 266.652 208.958C228.891 167.227 143.786 182.724 76.565 243.572C9.3437 304.419 -14.5389 387.576 23.2218 429.308C60.9824 471.039 146.087 455.542 213.308 394.694Z" fill="#F2F2F2"/>
<path d="M17.7264 561.266C8.66127 542.536 5.45113 521.433 7.02941 500.77C8.5977 480.239 14.9369 460.322 24.7962 442.292C34.344 424.831 46.9634 409.202 61.3079 395.458C76.5322 380.872 93.6995 368.489 111.762 357.667C130.835 346.239 150.877 336.527 171.152 327.44C173.679 326.308 176.21 325.184 178.744 324.069C180.407 323.337 178.969 320.897 177.316 321.625C156.644 330.729 136.146 340.322 116.545 351.579C97.8195 362.333 79.9043 374.635 63.8985 389.173C48.9674 402.735 35.6606 418.249 25.3428 435.619C14.6143 453.428 7.65734 473.252 4.90315 493.861C2.25981 514.616 4.30346 536.199 12.1704 555.673C13.1297 558.048 14.1671 560.389 15.2824 562.695C16.0759 564.334 18.5174 562.9 17.7264 561.266V561.266Z" fill="#E6E6E6"/>
<path d="M95.7984 364.885C94.8628 349.451 96.0241 333.96 99.2506 318.837C102.467 303.706 107.688 289.072 114.775 275.323C118.765 267.604 123.337 260.201 128.452 253.177C129.525 251.703 127.071 250.289 126.008 251.748C116.818 264.409 109.379 278.253 103.894 292.905C98.3954 307.558 94.8677 322.877 93.4029 338.46C92.5763 347.244 92.4308 356.079 92.968 364.886C93.0782 366.696 95.9093 366.708 95.7983 364.886L95.7984 364.885Z" fill="#E6E6E6"/>
<path d="M344.427 162.46C327.458 162.46 310.552 150.794 296.823 129.61C284.751 110.983 277.252 87.8307 277.252 69.1877C277.252 60.3645 278.989 51.6277 282.365 43.4761C285.741 35.3245 290.689 27.9178 296.927 21.6788C303.165 15.4399 310.57 10.4909 318.72 7.11436C326.87 3.73786 335.606 2 344.427 2C353.249 2 361.984 3.73786 370.134 7.11436C378.284 10.4909 385.69 15.4399 391.927 21.6788C398.165 27.9178 403.113 35.3245 406.489 43.4761C409.865 51.6277 411.603 60.3645 411.603 69.1877C411.603 87.8307 404.103 110.983 392.032 129.61C378.303 150.794 361.397 162.46 344.427 162.46ZM344.427 3.58089C327.036 3.60052 310.364 10.519 298.066 22.8184C285.769 35.1178 278.852 51.7937 278.833 69.1877C278.833 105.396 308.219 160.879 344.427 160.879C380.636 160.879 410.022 105.396 410.022 69.1877C410.002 51.7937 403.085 35.1178 390.788 22.8184C378.491 10.519 361.818 3.60052 344.427 3.58089Z" fill="#3F3D56" fill-opacity="0.7"/>
<path d="M296.508 129.814C310.27 151.049 327.276 162.835 344.427 162.835C361.578 162.835 378.584 151.049 392.346 129.814C404.45 111.138 411.978 87.9159 411.978 69.1877C411.978 60.3152 410.23 51.5297 406.836 43.3326C403.441 35.1355 398.465 27.6875 392.193 21.4137C385.92 15.1399 378.473 10.1633 370.278 6.76791C362.082 3.37256 353.298 1.625 344.427 1.625C335.556 1.625 326.772 3.37256 318.577 6.76791C310.381 10.1633 302.935 15.1399 296.662 21.4137C290.389 27.6875 285.414 35.1355 282.019 43.3326C278.624 51.5297 276.877 60.3152 276.877 69.1877C276.877 87.9159 284.405 111.138 296.508 129.814ZM298.332 23.0835C310.558 10.8544 327.136 3.97552 344.427 3.95589C361.719 3.97552 378.296 10.8544 390.523 23.0835C402.75 35.3127 409.627 51.8934 409.647 69.1881C409.647 87.2074 402.329 110.06 390.488 128.408C378.637 146.77 362.337 160.504 344.427 160.504C326.518 160.504 310.217 146.77 298.367 128.408C286.526 110.06 279.208 87.2072 279.208 69.1879C279.227 51.8933 286.105 35.3126 298.332 23.0835Z" stroke="#3F3D56" stroke-opacity="0.7" stroke-width="0.75"/>
<path d="M350.76 176.688H338.094C337.503 176.688 336.918 176.555 336.385 176.299C335.851 176.043 335.382 175.671 335.012 175.209C334.642 174.747 334.38 174.208 334.246 173.632C334.112 173.055 334.109 172.456 334.237 171.879L336.681 160.879H352.174L354.618 171.879C354.746 172.456 354.743 173.055 354.609 173.632C354.475 174.208 354.213 174.747 353.842 175.209C353.472 175.671 353.003 176.043 352.47 176.299C351.936 176.555 351.352 176.688 350.76 176.688H350.76ZM337.949 162.46L335.78 172.221C335.703 172.568 335.705 172.927 335.785 173.273C335.866 173.619 336.023 173.943 336.245 174.22C336.467 174.497 336.748 174.72 337.069 174.874C337.389 175.027 337.739 175.107 338.094 175.107H350.76C351.115 175.107 351.466 175.027 351.786 174.874C352.106 174.72 352.387 174.497 352.61 174.22C352.832 173.943 352.989 173.619 353.069 173.273C353.15 172.927 353.152 172.568 353.075 172.221L350.906 162.46H337.949Z" fill="#3F3D56" fill-opacity="0.7"/>
<path d="M336.681 160.504H336.38L336.314 160.798L333.871 171.797C333.871 171.797 333.871 171.797 333.871 171.797C333.73 172.43 333.734 173.086 333.88 173.717C334.027 174.348 334.314 174.938 334.719 175.443C335.125 175.949 335.638 176.357 336.223 176.637C336.807 176.917 337.446 177.063 338.094 177.063H350.76C351.408 177.063 352.048 176.917 352.632 176.637C353.216 176.357 353.73 175.949 354.135 175.443C354.54 174.938 354.827 174.348 354.974 173.717C355.121 173.086 355.124 172.43 354.984 171.797L352.54 160.798L352.475 160.504H352.174H336.681ZM336.15 173.188C336.082 172.897 336.081 172.594 336.146 172.303L338.249 162.835H350.605L352.709 172.303C352.709 172.303 352.709 172.303 352.709 172.303C352.773 172.594 352.772 172.897 352.704 173.188C352.636 173.48 352.504 173.752 352.317 173.985C352.13 174.218 351.893 174.406 351.624 174.536C351.354 174.665 351.059 174.732 350.76 174.732H338.094C337.795 174.732 337.5 174.665 337.231 174.536C336.961 174.406 336.724 174.218 336.537 173.985C336.35 173.752 336.218 173.48 336.15 173.188Z" stroke="#3F3D56" stroke-opacity="0.7" stroke-width="0.75"/>
<path d="M313.163 21.6515C302.734 27.9853 295.235 38.1892 292.303 50.0348C291.492 53.3293 291.061 56.7058 291.019 60.0984C291.03 60.4058 291.159 60.697 291.38 60.9106C291.602 61.1243 291.897 61.2437 292.204 61.2437C292.512 61.2437 292.807 61.1243 293.029 60.9106C293.25 60.697 293.379 60.4058 293.39 60.0984C293.631 48.5722 298.408 37.6062 306.683 29.5814C309.005 27.3288 311.581 25.3546 314.36 23.699C314.62 23.5348 314.806 23.2759 314.879 22.977C314.952 22.6781 314.906 22.3625 314.751 22.0969C314.596 21.8313 314.343 21.6363 314.047 21.5532C313.751 21.4701 313.434 21.5054 313.163 21.6515H313.163Z" fill="#3F3D56" fill-opacity="0.7"/>
<path d="M333.448 163.95C347.77 163.216 364.068 162.826 375.23 173.392C379.886 177.799 382.823 183.705 382.646 190.198C382.453 197.263 378.861 203.882 374.41 209.189C364.827 220.616 350.772 227.76 337.294 233.518C322.969 239.639 308.046 244.418 294.283 251.803C282.199 258.287 270.934 267.04 263.634 278.831C260.043 284.546 257.661 290.937 256.635 297.609C255.694 304.297 256.032 311.103 257.633 317.664C260.848 331.113 268.763 342.998 279.31 351.83C289.984 360.767 302.913 366.719 316.309 370.275C332.211 374.496 348.781 375.451 365.166 375.547C382.088 375.646 399.025 374.817 415.936 375.766C420.049 375.997 424.155 376.338 428.248 376.812C429.761 376.987 429.748 374.614 428.248 374.441C411.354 372.483 394.328 372.931 377.358 373.123C360.721 373.311 343.943 373.253 327.513 370.315C313.347 367.782 299.457 363.035 287.443 354.983C275.934 347.271 266.555 336.456 261.808 323.333C257.172 310.515 257.221 296.328 263.429 284.04C269.645 271.736 280.487 262.428 292.269 255.636C305.866 247.797 320.838 242.892 335.282 236.915C348.925 231.27 362.879 224.538 373.359 213.866C378.213 208.924 382.37 202.909 384.149 196.141C385.017 192.976 385.227 189.666 384.764 186.416C384.302 183.166 383.177 180.046 381.459 177.249C378.024 171.989 373.12 167.854 367.355 165.357C360.399 162.222 352.68 161.318 345.116 161.242C341.224 161.202 337.334 161.379 333.448 161.578C331.93 161.656 331.921 164.028 333.448 163.95H333.448Z" fill="#3F3D56" fill-opacity="0.7"/>
<path d="M332.497 163.707C332.713 163.948 333.034 164.095 333.448 164.075L333.455 164.075C347.787 163.341 364.027 162.959 375.144 173.483C379.779 177.87 382.697 183.744 382.521 190.194C382.329 197.22 378.756 203.812 374.313 209.109C364.751 220.511 350.721 227.646 337.245 233.403C332.385 235.479 327.452 237.403 322.517 239.327C312.921 243.069 303.316 246.813 294.224 251.692C282.128 258.183 270.843 266.948 263.528 278.764C259.927 284.494 257.539 290.901 256.511 297.59L256.511 297.59L256.511 297.591C255.567 304.295 255.907 311.117 257.512 317.694C260.733 331.171 268.665 343.079 279.23 351.926C289.92 360.878 302.867 366.837 316.277 370.396C332.195 374.621 348.777 375.577 365.165 375.672C370.971 375.706 376.776 375.631 382.579 375.556C393.701 375.412 404.819 375.268 415.929 375.891C420.04 376.122 424.144 376.462 428.234 376.936C428.647 376.984 428.971 376.858 429.189 376.626C429.403 376.397 429.504 376.078 429.503 375.757C429.502 375.117 429.091 374.412 428.262 374.316C412.985 372.545 397.599 372.742 382.254 372.937C380.621 372.958 378.988 372.979 377.356 372.998C360.719 373.186 343.953 373.127 327.535 370.192C313.381 367.661 299.509 362.919 287.513 354.879C276.022 347.179 266.662 336.384 261.926 323.29C257.3 310.499 257.351 296.349 263.541 284.096C269.742 271.822 280.562 262.529 292.332 255.744C302.262 250.02 312.921 245.863 323.583 241.705C327.51 240.173 331.438 238.641 335.33 237.031C348.975 231.385 362.95 224.646 373.449 213.954C378.311 209.003 382.483 202.969 384.27 196.174C385.143 192.992 385.354 189.665 384.889 186.398C384.424 183.132 383.293 179.995 381.566 177.183L381.565 177.18C378.116 171.9 373.193 167.749 367.406 165.242C360.427 162.097 352.688 161.193 345.117 161.116C341.221 161.077 337.328 161.254 333.442 161.453C332.6 161.496 332.182 162.18 332.18 162.822C332.18 163.144 332.282 163.467 332.497 163.707Z" stroke="#3F3D56" stroke-opacity="0.7" stroke-width="0.251"/>
<path d="M260.54 548.784L251.037 550.676L239.217 514.919L253.242 512.125L260.54 548.784Z" fill="#FFB8B8"/>
<path d="M264.797 557.514L234.158 563.616L234.081 563.229C233.769 561.662 233.769 560.05 234.08 558.483C234.391 556.917 235.007 555.427 235.894 554.099C236.781 552.77 237.921 551.63 239.248 550.742C240.576 549.855 242.065 549.237 243.631 548.925L243.632 548.925L262.346 545.198L264.797 557.514Z" fill="#2F2E41"/>
<path d="M351.316 554.223L341.626 554.222L330.695 516.843L344.995 516.844L351.316 554.223Z" fill="#FFB8B8"/>
<path d="M353.786 563.616L322.545 563.615V563.22C322.545 561.623 322.86 560.041 323.471 558.566C324.082 557.09 324.978 555.749 326.107 554.62C327.236 553.491 328.577 552.595 330.052 551.984C331.527 551.372 333.108 551.058 334.705 551.058H334.706L353.787 551.059L353.786 563.616Z" fill="#2F2E41"/>
<path d="M328.187 447.464C328.961 446.493 329.512 445.365 329.802 444.158C330.093 442.951 330.115 441.695 329.867 440.478C329.62 439.262 329.108 438.114 328.37 437.117C327.631 436.12 326.682 435.296 325.591 434.705L306.235 359.826L289.399 367.406L313.719 438.626C312.848 440.526 312.703 442.679 313.313 444.678C313.923 446.677 315.245 448.383 317.028 449.472C318.812 450.562 320.933 450.959 322.989 450.589C325.046 450.219 326.895 449.107 328.187 447.464Z" fill="#FFB8B8"/>
<path d="M310.763 372.373L292.052 376.793C291.519 376.919 290.966 376.928 290.43 376.821C289.893 376.714 289.386 376.492 288.943 376.171C288.5 375.85 288.132 375.437 287.863 374.961C287.594 374.484 287.43 373.956 287.384 373.41L285.76 354.308C285.132 351.58 285.611 348.714 287.093 346.339C288.574 343.964 290.937 342.274 293.663 341.638C296.388 341.003 299.255 341.475 301.633 342.95C304.012 344.425 305.709 346.783 306.352 349.508L313.425 367.259C313.627 367.768 313.718 368.314 313.69 368.86C313.662 369.407 313.517 369.941 313.265 370.426C313.012 370.911 312.658 371.336 312.226 371.672C311.795 372.009 311.296 372.248 310.763 372.373V372.373Z" fill="#3849DD"/>
<path d="M246.931 542.005C246.115 542.006 245.323 541.724 244.69 541.208C244.057 540.692 243.622 539.973 243.459 539.172L234.032 493.913C233.445 491.063 233.428 488.124 233.982 485.267C234.535 482.41 235.647 479.69 237.255 477.265L266.955 432.706V399.312L301.434 391.541L301.583 391.662C319.469 406.27 318.44 424.278 318.33 425.67L352.215 535.722C352.379 536.254 352.416 536.817 352.322 537.366C352.229 537.915 352.008 538.434 351.677 538.882C351.347 539.33 350.916 539.694 350.419 539.945C349.922 540.196 349.373 540.326 348.816 540.326H338.642C337.93 540.329 337.235 540.116 336.646 539.718C336.057 539.319 335.602 538.752 335.34 538.09L298.819 450.846L255.838 486.226C255.493 486.51 255.223 486.872 255.049 487.283C254.875 487.694 254.803 488.141 254.839 488.586L258.802 537.234C258.882 538.157 258.596 539.075 258.007 539.79C257.418 540.505 256.571 540.96 255.65 541.058L247.333 541.983C247.2 541.998 247.065 542.005 246.931 542.005Z" fill="#2F2E41"/>
<path d="M291.006 329.208C301.727 329.208 310.417 320.516 310.417 309.794C310.417 299.072 301.727 290.38 291.006 290.38C280.286 290.38 271.596 299.072 271.596 309.794C271.596 320.516 280.286 329.208 291.006 329.208Z" fill="#FFB8B8"/>
<path d="M268.792 403.016C268.085 403.016 267.393 402.807 266.806 402.414C266.218 402.021 265.76 401.462 265.49 400.808C258.988 384.841 259.095 364.674 261.947 352.693C263.162 347.62 266.118 343.135 270.301 340.019C274.483 336.903 279.626 335.354 284.834 335.642H284.834C287.933 335.807 290.963 336.617 293.731 338.021C296.499 339.424 298.944 341.39 300.909 343.792C302.874 346.195 304.316 348.981 305.143 351.973C305.97 354.964 306.164 358.096 305.712 361.167C304.192 371.469 303.575 385.981 303.38 391.741C303.351 392.51 303.074 393.248 302.59 393.847C302.107 394.445 301.443 394.871 300.697 395.062L269.659 402.908C269.376 402.98 269.084 403.016 268.792 403.016Z" fill="#3849DD"/>
<path d="M269.149 287.116C268.744 287.283 268.327 287.418 267.902 287.519L254.233 324.258L260.289 331.607L250.396 342.198L238.411 330.231C237.442 329.264 236.814 328.009 236.619 326.654C236.425 325.3 236.675 323.919 237.332 322.719L258.745 283.6C257.906 282.139 257.531 280.457 257.671 278.778C257.81 277.099 258.458 275.502 259.527 274.2C260.596 272.898 262.037 271.952 263.656 271.488C265.276 271.025 266.998 271.066 268.594 271.605C270.19 272.145 271.584 273.157 272.591 274.509C273.597 275.86 274.168 277.485 274.229 279.169C274.289 280.853 273.835 282.515 272.928 283.935C272.02 285.355 270.702 286.464 269.149 287.116Z" fill="#FFB8B8"/>
<path d="M246.899 341.146L257.802 325.307C258.112 324.856 258.516 324.478 258.985 324.197C259.455 323.916 259.98 323.74 260.523 323.681C261.067 323.621 261.617 323.68 262.137 323.852C262.656 324.025 263.132 324.307 263.532 324.68L277.557 337.748C279.854 339.348 281.423 341.794 281.919 344.55C282.415 347.305 281.799 350.145 280.205 352.446C278.611 354.748 276.169 356.323 273.415 356.826C270.662 357.33 267.821 356.72 265.516 355.132L248.359 346.723C247.868 346.483 247.434 346.139 247.088 345.715C246.742 345.291 246.491 344.798 246.352 344.269C246.214 343.74 246.191 343.187 246.285 342.648C246.38 342.109 246.589 341.596 246.899 341.146H246.899Z" fill="#3849DD"/>
<path d="M289.889 332.044C288.49 330.493 289.308 327.828 290.602 326.173C291.895 324.518 293.644 323.112 294.154 321.012C295.023 317.437 291.781 314.177 288.547 313.022C285.313 311.867 281.689 311.777 278.841 309.751C274.525 306.68 273.541 299.682 276.021 294.767C278.501 289.852 283.686 287.033 288.832 286.612C293.978 286.191 299.091 287.864 303.801 290.154C308.357 292.369 312.751 295.255 315.952 299.414C319.153 303.572 321.036 309.161 320.111 314.488C318.982 320.994 313.885 326.015 308.223 328.467C302.561 330.918 296.337 331.241 290.248 331.535L289.889 332.044Z" fill="#2F2E41"/>
<path d="M311.499 294.979C317.451 289.084 325.417 285.666 333.789 285.414C342.162 285.163 350.319 288.096 356.614 293.622C367.12 302.844 371.125 318.032 382.153 326.623C392.081 334.357 406.988 334.933 417.483 327.988C412.691 333.587 407.815 339.261 401.68 343.344C395.545 347.427 387.878 349.786 380.72 348.034C372.317 345.978 366.202 338.822 361.454 331.589C356.705 324.357 352.52 316.434 345.635 311.195C340.418 307.249 334.04 305.143 327.499 305.204C323.494 305.253 319.406 306.113 315.536 305.08C311.666 304.048 308.111 300.1 309.4 296.307L311.499 294.979Z" fill="#2F2E41"/>
<g filter="url(#filter0_d_166_131)">
<path fill-rule="evenodd" clip-rule="evenodd" d="M343.305 42.047C339.9 42.539 338.932 46.985 341.84 48.7789L342.645 49.2754L342.699 55.15L342.754 61.0245L343.243 61.3796C343.782 61.7707 344.45 61.7115 344.946 61.2287C345.197 60.9852 345.235 60.1759 345.236 55.1118L345.238 49.2754L345.973 48.8673C349.611 46.8483 347.496 41.4414 343.305 42.047ZM344.643 44.8205C345.315 45.278 345.151 46.4112 344.371 46.6994C343.23 47.121 342.344 45.7441 343.213 44.8996C343.655 44.4705 344.093 44.4463 344.643 44.8205ZM313.526 48.8769C312.88 49.4167 312.819 50.4489 313.399 51.0126C313.962 51.5601 315.063 51.4888 315.611 50.8695C316.82 49.5033 314.933 47.7005 313.526 48.8769ZM329.411 49.3621C326.094 49.9443 325.202 54.4392 328.069 56.1284L328.866 56.598L328.872 61.1969C328.878 66.3207 328.924 66.5105 330.164 66.5105C331.404 66.5105 331.45 66.3207 331.456 61.1969L331.462 56.598L332.259 56.1284C335.799 54.0424 333.526 48.6401 329.411 49.3621ZM358.267 49.3621C354.95 49.9441 354.063 54.3471 356.909 56.0989L357.719 56.598L357.726 61.1969C357.734 66.3205 357.78 66.5105 359.019 66.5105C360.259 66.5105 360.305 66.3205 360.313 61.1969L360.319 56.598L361.13 56.0989C364.633 53.9427 362.379 48.6406 358.267 49.3621ZM330.899 52.2224C331.774 53.0726 330.822 54.5362 329.75 53.988C328.685 53.4425 328.992 51.8651 330.164 51.8651C330.366 51.8651 330.697 52.0258 330.899 52.2224ZM359.754 52.2224C360.629 53.0726 359.677 54.5362 358.606 53.988C357.54 53.4425 357.848 51.8651 359.019 51.8651C359.222 51.8651 359.552 52.0258 359.754 52.2224ZM315.824 54.5887C313.345 55.807 313.111 59.2766 315.399 60.883L316.164 61.4203L316.226 67.8883C316.301 75.771 315.912 74.9724 319.719 75.0518C323.431 75.1292 323.915 74.9768 323.915 73.7308C323.915 72.6022 323.49 72.4042 321.066 72.4042H318.953L318.954 66.9121L318.956 61.4203L319.683 61.0168C323.838 58.7108 320.102 52.4862 315.824 54.5887ZM369.955 54.4831C367.22 55.882 366.961 59.6074 369.501 61.0168L370.228 61.4203L370.229 66.9121L370.231 72.4042H368.117C365.693 72.4042 365.268 72.6022 365.268 73.7308C365.268 74.9768 365.753 75.1292 369.464 75.0518C373.271 74.9724 372.882 75.771 372.958 67.8883L373.019 61.4203L373.784 60.883C377.457 58.3041 373.949 52.4407 369.955 54.4831ZM318.285 57.0575C319.129 57.7028 318.673 59.0091 317.603 59.0091C316.462 59.0091 316.102 57.2847 317.156 56.873C317.742 56.6446 317.745 56.6453 318.285 57.0575ZM372.413 57.137C372.766 57.4624 372.728 58.2396 372.339 58.6577C371.919 59.109 371.25 59.1065 370.782 58.652C369.714 57.6139 371.316 56.1261 372.413 57.137ZM342.478 63.9496C327.883 65.3347 321.21 81.7363 330.848 92.5358C337.309 99.7763 349.343 100.058 356.459 93.1354C367.959 81.9468 358.605 62.4191 342.478 63.9496ZM346.258 66.6979C357.742 68.6742 362.814 81.7852 355.404 90.3411C347.489 99.4798 332.298 95.9594 329.426 84.3214C327.005 74.5077 336.129 64.955 346.258 66.6979ZM332.921 76.5121C332.575 76.8484 332.553 77.1074 332.553 80.9528C332.553 85.6096 332.654 85.9779 333.932 85.9779C335.057 85.9779 335.31 85.408 335.31 82.8784V80.7203L336.393 81.7619L337.477 82.8034L337.547 84.0203C337.653 85.843 338.844 86.6514 339.905 85.6206C340.406 85.1339 340.477 77.2322 339.987 76.5517C339.19 75.4472 337.69 76.2556 337.553 77.863L337.469 78.8512L336.043 77.5031C334.461 76.0071 333.692 75.763 332.921 76.5121ZM341.743 76.5121C341.396 76.8488 341.375 77.1074 341.375 81.0662C341.375 85.7895 341.427 85.9779 342.725 85.9779C343.709 85.9779 344.027 85.4791 344.105 83.8164L344.171 82.4059H345.505C347.149 82.4059 347.808 82.0225 347.808 81.0662C347.808 80.1063 347.15 79.7268 345.486 79.7268H344.132V79.1909V78.6553H345.603C347.281 78.6553 347.808 78.3563 347.808 77.405C347.808 76.3249 347.37 76.1548 344.592 76.1548C342.356 76.1548 342.074 76.19 341.743 76.5121ZM349.197 76.5517C348.432 77.6133 349.109 78.6553 350.565 78.6553H351.484V82.0209C351.484 85.7728 351.549 85.9779 352.739 85.9779C353.955 85.9779 354.057 85.6665 354.057 81.9594V78.6553H354.963C356.386 78.6553 357.158 77.3824 356.263 76.5121C355.666 75.9326 349.619 75.9666 349.197 76.5517ZM314.704 79.3505C314.097 79.8285 314.097 81.0539 314.704 81.5319C315.747 82.3524 317.198 81.7175 317.198 80.4412C317.198 79.5366 316.662 79.0124 315.736 79.0124C315.405 79.0124 314.941 79.1647 314.704 79.3505ZM374.182 79.4045C373.333 79.8724 373.291 80.8692 374.084 81.7468L374.63 82.3503L374.084 82.8581C372.528 84.3068 374.359 86.142 375.968 84.7452L376.564 84.2272L377.172 84.7452C378.825 86.1564 380.61 84.4133 379.081 82.8805L378.496 82.2943L378.978 81.8588C379.681 81.2226 379.833 80.7128 379.528 80.0039C379.085 78.974 378.024 78.9614 377.049 79.9744L376.607 80.4332L375.899 79.8121C375.155 79.1587 374.787 79.0712 374.182 79.4045ZM316.974 85.9843C316.257 86.2643 316.196 86.8279 316.185 93.2675L316.173 99.4622L315.404 99.9994C312.478 102.041 313.773 106.439 317.366 106.662C321.31 106.906 323.069 101.745 319.683 99.8656L318.956 99.4622L318.954 93.9703L318.953 88.4782H321.066C323.473 88.4782 323.918 88.2759 323.912 87.1833C323.906 85.9578 323.461 85.7966 320.114 85.8105C318.616 85.8167 317.203 85.8949 316.974 85.9843ZM365.911 86.0062C365.394 86.3007 365.274 86.5201 365.271 87.1833C365.266 88.2759 365.711 88.4782 368.117 88.4782H370.231L370.229 93.9703L370.228 99.4622L369.501 99.8656C366.114 101.745 367.874 106.906 371.818 106.662C375.407 106.44 376.704 102.049 373.784 99.9994L373.019 99.4622L372.958 92.9941C372.901 87.0743 372.868 86.4989 372.568 86.2072C372.159 85.8099 366.554 85.6407 365.911 86.0062ZM358.1 94.7293C357.752 95.0676 357.732 95.3294 357.726 99.6855L357.719 104.284L356.909 104.783C353.733 106.738 355.22 111.554 358.999 111.554C362.92 111.554 364.367 106.418 360.95 104.629L360.306 104.292V99.6894C360.306 94.5605 360.26 94.3722 359.019 94.3722C358.713 94.3722 358.305 94.5308 358.1 94.7293ZM329.245 95.9795C328.9 96.3149 328.877 96.5789 328.872 100.311L328.866 104.284L328.069 104.754C324.853 106.649 326.364 111.554 330.164 111.554C333.964 111.554 335.475 106.649 332.259 104.754L331.462 104.284L331.456 100.311C331.45 95.8828 331.378 95.6222 330.164 95.6222C329.858 95.6222 329.449 95.7811 329.245 95.9795ZM343.146 100.815L342.662 101.185L342.655 106.396L342.648 111.607L341.842 112.104C338.664 114.059 340.131 118.846 343.913 118.864C347.833 118.882 349.337 113.882 345.973 112.015L345.238 111.607L345.236 106.383C345.235 101.398 345.218 101.142 344.867 100.802C344.395 100.343 343.757 100.347 343.146 100.815ZM318.401 102.231C318.916 102.73 318.867 103.38 318.281 103.828C317.162 104.683 315.884 103.256 316.845 102.225C317.265 101.773 317.934 101.776 318.401 102.231ZM372.339 102.225C373.299 103.256 372.021 104.683 370.903 103.828C370.317 103.38 370.268 102.73 370.782 102.231C371.25 101.776 371.919 101.773 372.339 102.225ZM330.619 106.905C331.507 107.298 331.399 108.71 330.463 108.938C328.884 109.323 328.549 107.213 330.109 106.708C330.13 106.701 330.359 106.79 330.619 106.905ZM359.474 106.905C360.363 107.298 360.254 108.71 359.318 108.938C357.739 109.323 357.404 107.213 358.965 106.708C358.985 106.701 359.215 106.79 359.474 106.905ZM344.684 114.375C345.375 115.048 344.892 116.34 343.948 116.34C343.186 116.34 342.565 115.233 342.986 114.628C343.419 114.007 344.187 113.893 344.684 114.375Z" fill="#3F3D56" fill-opacity="0.7" shape-rendering="crispEdges"/>
</g>
</g>
<defs>
<filter id="filter0_d_166_131" x="305" y="38" width="82.6772" height="92.864" filterUnits="userSpaceOnUse" color-interpolation-filters="sRGB">
<feFlood flood-opacity="0" result="BackgroundImageFix"/>
<feColorMatrix in="SourceAlpha" type="matrix" values="0 0 0 0 0 0 0 0 0 0 0 0 0 0 0 0 0 0 127 0" result="hardAlpha"/>
<feOffset dy="4"/>
<feGaussianBlur stdDeviation="4"/>
<feComposite in2="hardAlpha" operator="out"/>
<feColorMatrix type="matrix" values="0 0 0 0 0.247059 0 0 0 0 0.239216 0 0 0 0 0.337255 0 0 0 0.3 0"/>
<feBlend mode="normal" in2="BackgroundImageFix" result="effect1_dropShadow_166_131"/>
<feBlend mode="normal" in="SourceGraphic" in2="effect1_dropShadow_166_131" result="shape"/>
</filter>
<clipPath id="clip0_166_131">
<rect width="591" height="565" fill="white"/>
</clipPath>
</defs>
</svg>
