<svg viewBox="0 0 624 527" fill="none" xmlns="http://www.w3.org/2000/svg">
<path d="M510.885 525.247L510.9 524.55C511.216 512.862 514.073 501.382 519.273 490.91C524.473 480.437 531.892 471.223 541.013 463.907C546.161 459.844 551.801 456.445 557.799 453.791L558.371 453.537L558.468 454.155C559.63 461.535 561.469 469.068 562.326 472.411L568.07 449.997L568.709 449.812C571.636 448.953 574.753 448.99 577.658 449.919C580.564 450.847 583.125 452.624 585.012 455.021C586.98 457.419 588.186 460.351 588.473 463.44C588.76 466.529 588.116 469.633 586.623 472.353C585.284 474.847 583.968 477.45 582.695 479.967C578.321 488.616 573.799 497.56 567.208 504.509C562.168 509.719 556.027 513.738 549.235 516.272C542.443 518.806 535.17 519.791 527.949 519.154L510.885 525.247Z" fill="#F2F2F2"/>
<path d="M336.248 320.566H187.967C182.634 320.56 177.521 318.439 173.75 314.668C169.979 310.897 167.857 305.784 167.851 300.451V91.8522C167.879 67.5 177.565 44.153 194.785 26.9333C212.004 9.71367 235.351 0.0275554 259.703 0H336.248C341.581 0.00602138 346.694 2.12718 350.465 5.89813C354.236 9.66908 356.357 14.7819 356.363 20.1148V300.451C356.357 305.784 354.236 310.897 350.465 314.668C346.694 318.439 341.581 320.56 336.248 320.566V320.566Z" fill="#F2F2F2"/>
<path d="M193.152 181.284C190.905 181.287 188.752 182.18 187.164 183.768C185.576 185.356 184.682 187.51 184.68 189.756V237.369C184.682 239.615 185.576 241.768 187.164 243.357C188.752 244.945 190.905 245.839 193.152 245.841H337.253C339.5 245.839 341.653 244.945 343.241 243.357C344.83 241.768 345.723 239.615 345.725 237.369V189.756C345.723 187.51 344.829 185.356 343.241 183.768C341.653 182.18 339.5 181.287 337.253 181.284L193.152 181.284Z" fill="white"/>
<path d="M337.6 150.394H193.499C191.068 150.391 188.739 149.424 187.02 147.706C185.302 145.988 184.335 143.658 184.333 141.227C184.35 126.174 190.337 111.742 200.982 101.097C211.626 90.4527 226.058 84.4651 241.112 84.4481H337.601C340.031 84.4508 342.361 85.4174 344.079 87.1358C345.797 88.8542 346.764 91.1841 346.767 93.6143V141.227C346.764 143.657 345.797 145.987 344.079 147.706C342.36 149.424 340.03 150.391 337.6 150.394V150.394Z" fill="white"/>
<path d="M399.642 238.536H233.758C232.783 238.535 231.848 238.147 231.159 237.458C230.469 236.768 230.081 235.834 230.08 234.859V191.151C230.081 190.175 230.469 189.241 231.159 188.551C231.848 187.862 232.783 187.474 233.758 187.473H399.642C400.617 187.474 401.552 187.862 402.241 188.551C402.931 189.241 403.319 190.175 403.32 191.151V234.859C403.319 235.834 402.931 236.769 402.241 237.458C401.552 238.147 400.617 238.535 399.642 238.536V238.536Z" fill="white"/>
<path d="M399.642 239.231H233.758C232.599 239.229 231.488 238.768 230.668 237.949C229.849 237.129 229.388 236.018 229.386 234.859V191.151C229.388 189.992 229.849 188.88 230.668 188.061C231.488 187.241 232.599 186.78 233.758 186.779H399.642C400.801 186.78 401.913 187.241 402.732 188.061C403.552 188.88 404.013 189.992 404.014 191.151V234.859C404.013 236.018 403.552 237.129 402.732 237.949C401.913 238.768 400.801 239.229 399.642 239.231V239.231ZM233.758 188.167C232.967 188.168 232.209 188.483 231.649 189.042C231.09 189.601 230.775 190.36 230.775 191.151V234.859C230.775 235.65 231.09 236.408 231.649 236.967C232.209 237.527 232.967 237.841 233.758 237.842H399.642C400.433 237.841 401.192 237.527 401.751 236.967C402.31 236.408 402.625 235.65 402.626 234.859V191.151C402.625 190.36 402.31 189.601 401.751 189.042C401.192 188.483 400.433 188.168 399.642 188.167H233.758Z" fill="#CCCCCC"/>
<path d="M247.863 208.19C251.159 208.19 253.831 205.519 253.831 202.223C253.831 198.927 251.159 196.255 247.863 196.255C244.568 196.255 241.896 198.927 241.896 202.223C241.896 205.519 244.568 208.19 247.863 208.19Z" fill="#E6E6E6"/>
<path d="M389.726 217.261H243.673C243.439 217.262 243.208 217.216 242.992 217.127C242.775 217.038 242.579 216.907 242.414 216.742C242.248 216.577 242.117 216.381 242.027 216.165C241.938 215.949 241.892 215.718 241.892 215.484C241.892 215.25 241.938 215.019 242.027 214.803C242.117 214.587 242.248 214.391 242.414 214.226C242.579 214.061 242.775 213.93 242.992 213.841C243.208 213.752 243.439 213.706 243.673 213.707H389.726C389.96 213.706 390.192 213.752 390.408 213.841C390.624 213.93 390.82 214.061 390.986 214.226C391.151 214.391 391.282 214.587 391.372 214.803C391.461 215.019 391.508 215.25 391.508 215.484C391.508 215.718 391.461 215.949 391.372 216.165C391.282 216.381 391.151 216.577 390.986 216.742C390.82 216.907 390.624 217.038 390.408 217.127C390.192 217.216 389.96 217.262 389.726 217.261H389.726Z" fill="#E6E6E6"/>
<path d="M375.214 224.283H243.673C243.202 224.283 242.75 224.096 242.416 223.763C242.083 223.429 241.896 222.977 241.896 222.506C241.896 222.035 242.083 221.583 242.416 221.249C242.75 220.916 243.202 220.729 243.673 220.729H375.214C375.685 220.729 376.137 220.916 376.471 221.249C376.804 221.583 376.991 222.035 376.991 222.506C376.991 222.977 376.804 223.429 376.471 223.763C376.137 224.096 375.685 224.283 375.214 224.283V224.283Z" fill="#E6E6E6"/>
<path d="M227.307 523.611L186.705 507.427C185.8 507.065 185.075 506.359 184.69 505.463C184.305 504.568 184.29 503.556 184.65 502.65L246.071 348.555C246.433 347.65 247.139 346.925 248.035 346.54C248.93 346.155 249.942 346.14 250.848 346.5L291.45 362.684C292.356 363.046 293.08 363.752 293.465 364.648C293.851 365.544 293.865 366.555 293.505 367.462L232.085 521.556C231.723 522.461 231.016 523.186 230.12 523.571C229.225 523.957 228.213 523.971 227.307 523.611V523.611Z" fill="white"/>
<path d="M227.05 524.256L186.448 508.072C185.372 507.642 184.51 506.802 184.052 505.738C183.594 504.673 183.578 503.47 184.006 502.393L245.426 348.298C245.856 347.222 246.696 346.36 247.761 345.902C248.825 345.444 250.028 345.428 251.105 345.856L291.707 362.039C292.783 362.469 293.645 363.309 294.103 364.374C294.561 365.439 294.578 366.642 294.15 367.719L232.729 521.813C232.299 522.89 231.459 523.751 230.395 524.209C229.33 524.667 228.127 524.684 227.05 524.256V524.256ZM185.295 502.907C185.003 503.642 185.015 504.463 185.327 505.189C185.64 505.916 186.228 506.489 186.962 506.783L227.564 522.966C228.299 523.258 229.12 523.247 229.846 522.934C230.573 522.622 231.146 522.034 231.44 521.299L292.86 367.205C293.152 366.47 293.14 365.649 292.828 364.922C292.515 364.195 291.928 363.622 291.193 363.329L250.591 347.145C249.856 346.853 249.035 346.865 248.309 347.177C247.582 347.49 247.009 348.078 246.715 348.812L185.295 502.907Z" fill="#CCCCCC"/>
<path d="M254.549 373.087C257.845 373.087 260.517 370.415 260.517 367.119C260.517 363.823 257.845 361.151 254.549 361.151C251.253 361.151 248.582 363.823 248.582 367.119C248.582 370.415 251.253 373.087 254.549 373.087Z" fill="#E6E6E6"/>
<path d="M213.684 505.461C213.247 505.286 212.896 504.944 212.71 504.511C212.524 504.079 212.517 503.59 212.691 503.152L266.769 367.479C266.855 367.262 266.984 367.064 267.146 366.897C267.309 366.73 267.503 366.596 267.718 366.504C267.932 366.412 268.163 366.363 268.396 366.36C268.629 366.357 268.861 366.399 269.078 366.486C269.294 366.572 269.492 366.7 269.659 366.863C269.827 367.026 269.96 367.22 270.052 367.435C270.144 367.649 270.193 367.879 270.197 368.113C270.2 368.346 270.157 368.578 270.07 368.795L215.993 504.468C215.818 504.905 215.477 505.255 215.044 505.441C214.611 505.628 214.122 505.634 213.684 505.461V505.461Z" fill="#E6E6E6"/>
<path d="M225.58 494.58C225.143 494.405 224.793 494.064 224.606 493.631C224.42 493.198 224.413 492.709 224.587 492.271L273.292 370.079C273.378 369.861 273.506 369.663 273.669 369.496C273.831 369.328 274.026 369.194 274.24 369.101C274.455 369.009 274.685 368.96 274.919 368.956C275.153 368.953 275.385 368.996 275.602 369.083C275.819 369.169 276.017 369.298 276.184 369.461C276.351 369.624 276.485 369.818 276.577 370.033C276.669 370.248 276.718 370.478 276.721 370.712C276.724 370.946 276.68 371.178 276.593 371.395L227.889 493.587C227.714 494.024 227.373 494.375 226.94 494.561C226.507 494.747 226.018 494.754 225.58 494.58V494.58Z" fill="#E6E6E6"/>
<path d="M327.24 41.2378C335.916 41.2378 342.949 34.2048 342.949 25.529C342.949 16.8532 335.916 9.82013 327.24 9.82013C318.564 9.82013 311.531 16.8532 311.531 25.529C311.531 34.2048 318.564 41.2378 327.24 41.2378Z" fill="white"/>
<path d="M334.975 24.9079H327.908V17.8417C327.909 17.7537 327.892 17.6665 327.858 17.5851C327.825 17.5037 327.776 17.4297 327.714 17.3674C327.651 17.305 327.578 17.2555 327.496 17.2218C327.415 17.188 327.328 17.1707 327.24 17.1707C327.152 17.1707 327.065 17.188 326.983 17.2218C326.902 17.2555 326.828 17.305 326.766 17.3674C326.704 17.4297 326.655 17.5037 326.622 17.5851C326.588 17.6665 326.571 17.7537 326.571 17.8417V24.9079H319.505C319.328 24.9079 319.158 24.9783 319.033 25.1037C318.907 25.229 318.837 25.399 318.837 25.5763C318.837 25.7536 318.907 25.9236 319.033 26.049C319.158 26.1744 319.328 26.2448 319.505 26.2448H326.571V33.3111C326.571 33.3991 326.588 33.4863 326.622 33.5677C326.655 33.6491 326.704 33.7231 326.766 33.7855C326.828 33.8478 326.902 33.8973 326.983 33.931C327.065 33.9648 327.152 33.9822 327.24 33.9822C327.328 33.9822 327.415 33.9648 327.496 33.931C327.578 33.8973 327.651 33.8478 327.714 33.7855C327.776 33.7231 327.825 33.6491 327.858 33.5677C327.892 33.4863 327.909 33.3991 327.908 33.3111V26.2448H334.975C335.152 26.2448 335.322 26.1744 335.447 26.049C335.573 25.9236 335.643 25.7536 335.643 25.5763C335.643 25.399 335.573 25.229 335.447 25.1037C335.322 24.9783 335.152 24.9079 334.975 24.9079Z" fill="#E6E6E6"/>
<path d="M520.818 38.4724H467.818C464.371 38.4724 461.064 37.1028 458.626 34.6648C456.188 32.2268 454.818 28.9202 454.818 25.4724C454.818 22.0246 456.188 18.718 458.626 16.28C461.064 13.8421 464.371 12.4724 467.818 12.4724H520.818C524.266 12.4724 527.573 13.8421 530.011 16.28C532.449 18.718 533.818 22.0246 533.818 25.4724C533.818 28.9202 532.449 32.2268 530.011 34.6648C527.573 37.1028 524.266 38.4724 520.818 38.4724V38.4724Z" fill="#3849DD"/>
<path d="M339.727 20.1189L339.698 22.1189L442.117 23.5984L442.146 21.5984L339.727 20.1189Z" fill="#3F3D56"/>
<path d="M335.428 26.5442C334.198 26.5471 333.009 26.0968 332.089 25.2793C331.169 24.4618 330.583 23.3343 330.441 22.1118C330.299 20.8894 330.613 19.6576 331.321 18.6515C332.03 17.6453 333.084 16.9352 334.283 16.6566C335.481 16.378 336.741 16.5504 337.82 17.141C338.9 17.7315 339.724 18.6989 340.136 19.8584C340.548 21.018 340.519 22.2887 340.054 23.4281C339.589 24.5675 338.721 25.4958 337.615 26.0359C336.934 26.3688 336.186 26.5426 335.428 26.5442V26.5442ZM335.421 18.5398C334.769 18.5398 334.135 18.752 333.615 19.1443C333.094 19.5365 332.715 20.0876 332.535 20.7143C332.356 21.3409 332.385 22.009 332.618 22.6177C332.852 23.2263 333.277 23.7424 333.83 24.088C334.383 24.4335 335.033 24.5897 335.682 24.5331C336.332 24.4764 336.945 24.2099 337.43 23.7738C337.914 23.3377 338.244 22.7557 338.368 22.1158C338.493 21.4759 338.406 20.8128 338.12 20.2268V20.2264C337.873 19.721 337.489 19.295 337.012 18.9969C336.535 18.6988 335.984 18.5404 335.421 18.5399V18.5398Z" fill="#3F3D56"/>
<path d="M28.5924 55.4724C28.5962 52.0258 29.9671 48.7214 32.4042 46.2842C34.8414 43.8471 38.1458 42.4762 41.5924 42.4724H94.5924C98.0402 42.4724 101.347 43.8421 103.785 46.28C106.223 48.718 107.592 52.0246 107.592 55.4724C107.592 58.9202 106.223 62.2268 103.785 64.6648C101.347 67.1028 98.0402 68.4724 94.5924 68.4724H41.5924C38.1458 68.4686 34.8414 67.0977 32.4042 64.6606C29.9671 62.2234 28.5962 58.9191 28.5924 55.4724V55.4724Z" fill="#3849DD"/>
<path d="M222.685 50.122L120.265 51.6011L120.294 53.6011L222.714 52.122L222.685 50.122Z" fill="#3F3D56"/>
<path d="M224.796 56.0359C223.701 55.4985 222.842 54.5771 222.383 53.4474C221.924 52.3176 221.896 51.0584 222.306 49.9096C222.715 48.7609 223.533 47.8029 224.603 47.2181C225.673 46.6334 226.921 46.4629 228.109 46.739C229.297 47.015 230.342 47.7185 231.044 48.7152C231.747 49.712 232.058 50.9324 231.919 52.144C231.78 53.3555 231.2 54.4736 230.29 55.285C229.379 56.0965 228.202 56.5447 226.983 56.5442C226.224 56.5439 225.476 56.37 224.796 56.0359V56.0359ZM226.01 48.7049C225.637 48.8322 225.293 49.0322 224.998 49.2934C224.703 49.5546 224.462 49.8717 224.291 50.2264V50.2268C223.985 50.8521 223.906 51.564 224.067 52.2411C224.228 52.9182 224.618 53.5186 225.172 53.9399C225.726 54.3612 226.409 54.5774 227.104 54.5515C227.8 54.5257 228.465 54.2594 228.986 53.7981C229.507 53.3368 229.852 52.7091 229.962 52.0219C230.072 51.3348 229.94 50.6308 229.589 50.0299C229.238 49.429 228.689 48.9685 228.037 48.7269C227.384 48.4852 226.668 48.4774 226.01 48.7048V48.7049Z" fill="#3F3D56"/>
<path d="M24.5924 448.472C24.5962 445.026 25.9671 441.721 28.4042 439.284C30.8414 436.847 34.1458 435.476 37.5924 435.472H90.5924C94.0402 435.472 97.3468 436.842 99.7848 439.28C102.223 441.718 103.592 445.025 103.592 448.472C103.592 451.92 102.223 455.227 99.7848 457.665C97.3468 460.103 94.0402 461.472 90.5924 461.472H37.5924C34.1458 461.469 30.8414 460.098 28.4042 457.661C25.9671 455.223 24.5962 451.919 24.5924 448.472V448.472Z" fill="#3849DD"/>
<path d="M218.683 443.124L116.264 444.603L116.293 446.603L218.712 445.124L218.683 443.124Z" fill="#3F3D56"/>
<path d="M220.796 449.036C219.701 448.499 218.842 447.577 218.383 446.447C217.924 445.318 217.896 444.058 218.306 442.91C218.715 441.761 219.533 440.803 220.603 440.218C221.673 439.633 222.921 439.463 224.109 439.739C225.297 440.015 226.342 440.718 227.044 441.715C227.747 442.712 228.058 443.932 227.919 445.144C227.78 446.356 227.2 447.474 226.29 448.285C225.379 449.097 224.202 449.545 222.983 449.544C222.224 449.544 221.476 449.37 220.796 449.036V449.036ZM222.01 441.705C221.637 441.832 221.293 442.032 220.998 442.293C220.703 442.555 220.462 442.872 220.291 443.226V443.227C219.985 443.852 219.906 444.564 220.067 445.241C220.228 445.918 220.618 446.519 221.172 446.94C221.726 447.361 222.409 447.577 223.104 447.552C223.8 447.526 224.465 447.259 224.986 446.798C225.507 446.337 225.852 445.709 225.962 445.022C226.072 444.335 225.94 443.631 225.589 443.03C225.238 442.429 224.689 441.968 224.036 441.727C223.384 441.485 222.668 441.477 222.01 441.705V441.705Z" fill="#3F3D56"/>
<path d="M38.5924 200.472C38.5962 197.026 39.9671 193.721 42.4042 191.284C44.8414 188.847 48.1458 187.476 51.5924 187.472H104.592C108.04 187.472 111.347 188.842 113.785 191.28C116.223 193.718 117.592 197.025 117.592 200.472C117.592 203.92 116.223 207.227 113.785 209.665C111.347 212.103 108.04 213.472 104.592 213.472H51.5924C48.1458 213.469 44.8414 212.098 42.4042 209.661C39.9671 207.223 38.5962 203.919 38.5924 200.472V200.472Z" fill="#3849DD"/>
<path d="M232.684 195.123L130.265 196.602L130.294 198.602L232.713 197.123L232.684 195.123Z" fill="#3F3D56"/>
<path d="M234.796 201.036C233.701 200.499 232.842 199.577 232.383 198.447C231.924 197.318 231.896 196.058 232.306 194.91C232.715 193.761 233.533 192.803 234.603 192.218C235.673 191.633 236.921 191.463 238.109 191.739C239.297 192.015 240.342 192.718 241.044 193.715C241.747 194.712 242.058 195.932 241.919 197.144C241.78 198.356 241.2 199.474 240.29 200.285C239.379 201.097 238.202 201.545 236.983 201.544C236.224 201.544 235.476 201.37 234.796 201.036V201.036ZM236.01 193.705C235.637 193.832 235.293 194.032 234.998 194.293C234.703 194.555 234.462 194.872 234.291 195.226V195.227C233.985 195.852 233.906 196.564 234.067 197.241C234.228 197.918 234.618 198.519 235.172 198.94C235.726 199.361 236.409 199.577 237.104 199.552C237.8 199.526 238.465 199.259 238.986 198.798C239.507 198.337 239.852 197.709 239.962 197.022C240.072 196.335 239.94 195.631 239.589 195.03C239.238 194.429 238.689 193.968 238.037 193.727C237.384 193.485 236.668 193.477 236.01 193.705V193.705Z" fill="#3F3D56"/>
<path d="M506.818 121.472H453.818C450.371 121.472 447.064 120.103 444.626 117.665C442.188 115.227 440.818 111.92 440.818 108.472C440.818 105.025 442.188 101.718 444.626 99.28C447.064 96.8421 450.371 95.4724 453.818 95.4724H506.818C510.266 95.4724 513.573 96.8421 516.011 99.28C518.449 101.718 519.818 105.025 519.818 108.472C519.818 111.92 518.449 115.227 516.011 117.665C513.573 120.103 510.266 121.472 506.818 121.472V121.472Z" fill="#3849DD"/>
<path d="M325.727 103.119L325.698 105.119L428.117 106.598L428.146 104.598L325.727 103.119Z" fill="#3F3D56"/>
<path d="M321.428 109.544C320.198 109.547 319.009 109.097 318.089 108.279C317.169 107.462 316.583 106.334 316.441 105.112C316.299 103.889 316.613 102.658 317.321 101.652C318.03 100.645 319.084 99.9353 320.283 99.6567C321.481 99.3781 322.741 99.5505 323.82 100.141C324.9 100.732 325.724 101.699 326.136 102.859C326.548 104.018 326.519 105.289 326.054 106.428C325.589 107.568 324.721 108.496 323.615 109.036C322.934 109.369 322.186 109.543 321.428 109.544V109.544ZM321.421 101.54C320.769 101.54 320.135 101.752 319.615 102.144C319.094 102.537 318.715 103.088 318.535 103.714C318.356 104.341 318.385 105.009 318.618 105.618C318.852 106.226 319.277 106.742 319.83 107.088C320.383 107.434 321.033 107.59 321.682 107.533C322.332 107.476 322.945 107.21 323.43 106.774C323.914 106.338 324.244 105.756 324.368 105.116C324.493 104.476 324.406 103.813 324.12 103.227V103.226C323.873 102.721 323.489 102.295 323.012 101.997C322.535 101.699 321.984 101.54 321.421 101.54V101.54Z" fill="#3F3D56"/>
<path d="M535.163 269.549L519.769 270.231C516.3 279.665 518.757 302.566 518.757 302.566L510.67 340.2C509.823 341.043 509.213 342.095 508.902 343.248C508.591 344.402 508.589 345.618 508.896 346.772C509.204 347.927 509.811 348.981 510.655 349.827C511.499 350.672 512.551 351.281 513.705 351.591C514.86 351.901 516.075 351.902 517.229 351.592C518.384 351.283 519.437 350.676 520.281 349.83C521.126 348.985 521.734 347.932 522.042 346.778C522.351 345.623 522.35 344.408 522.039 343.253L538.463 298.126L535.163 269.549Z" fill="#9E616A"/>
<path d="M524.922 228.387C527.31 228.309 529.685 228.757 531.88 229.701C534.075 230.645 536.035 232.061 537.62 233.848C539.205 235.636 540.377 237.75 541.052 240.042C541.727 242.334 541.889 244.746 541.526 247.107L540.047 256.723C540.047 256.723 544.276 289.457 539.12 298.366L529.285 324.999L513.238 324.178L517.675 295.095C517.675 295.095 518.794 280.7 514.699 274.611C512.192 270.882 509.642 256.848 509.206 245.122C509.137 242.991 509.489 240.867 510.242 238.871C510.994 236.876 512.133 235.049 513.593 233.495C515.053 231.94 516.805 230.689 518.749 229.813C520.693 228.936 522.791 228.452 524.922 228.387V228.387Z" fill="#3F3D56"/>
<path d="M513.798 514.593L503.803 514.592L499.047 476.036H513.801L513.798 514.593Z" fill="#9E616A"/>
<path d="M514.151 525.02L483.412 525.019V524.63C483.412 521.457 484.673 518.414 486.916 516.171C489.16 513.927 492.203 512.666 495.376 512.666H495.377L500.992 508.406L511.468 512.667L514.151 512.667L514.151 525.02Z" fill="#2F2E41"/>
<path d="M477.681 514.593L467.686 514.592L462.93 476.036H477.684L477.681 514.593Z" fill="#9E616A"/>
<path d="M478.034 525.02L447.295 525.019V524.63C447.295 521.457 448.556 518.414 450.799 516.171C453.043 513.927 456.086 512.666 459.259 512.666H459.26L464.875 508.406L475.351 512.667L478.034 512.667L478.034 525.02Z" fill="#2F2E41"/>
<path d="M441.385 409.522C447.321 428.433 449.601 443.27 454.125 461.995C455.911 465.283 463.602 492.599 463.602 492.599C463.602 492.599 475.129 493.864 479.206 490.638C483.283 487.412 479.081 471.447 479.081 471.447C481.769 459.377 475.145 440.359 474.752 428.658C475.568 423.747 471.245 419.531 470.849 414.847C473.707 412.673 487.608 378.55 490.443 369.015C488.986 398.068 501.766 464.405 495.033 486.442C491.12 499.246 500.214 496.4 513.681 497.019C519.685 495.235 517.243 484.957 517.243 484.957C517.243 484.957 521.32 478.169 521.32 475.536C524.239 463.218 527.747 436.423 526.79 430.402C527.228 424.011 527.445 360.156 532.327 337.789C535.58 319.973 495.709 316.051 484.242 311.802C465.108 302.584 468.337 315.69 458.261 327.763C448.545 348.574 442.822 385.737 441.385 409.522Z" fill="#2F2E41"/>
<path d="M486.051 222.225L497.675 209.137L516.042 211.178L527.802 227.635C540.798 230.626 543.195 241.252 540.913 254.391C536.35 280.668 525.085 299.035 530.205 312C537.978 331.681 534.21 346.825 515.603 344.066C496.996 341.307 454.12 323.086 466.205 311C478.291 298.914 467.486 292.579 467.486 292.579L475.97 246.375C473.797 234.592 474.133 223.459 486.051 222.225V222.225Z" fill="#3F3D56"/>
<path d="M487.544 263.705L472.895 258.926C466.328 266.535 460.568 288.837 460.568 288.837L439.754 321.217C438.665 321.708 437.724 322.477 437.026 323.448C436.329 324.418 435.899 325.555 435.781 326.744C435.662 327.934 435.859 329.133 436.352 330.222C436.844 331.311 437.615 332.251 438.586 332.947C439.558 333.644 440.695 334.072 441.885 334.189C443.074 334.306 444.273 334.107 445.361 333.613C446.45 333.12 447.389 332.348 448.084 331.376C448.779 330.404 449.206 329.265 449.321 328.076L480.576 291.616L487.544 263.705Z" fill="#9E616A"/>
<path d="M492.444 221.573C494.707 222.339 496.773 223.595 498.495 225.251C500.217 226.907 501.553 228.922 502.408 231.153C503.263 233.384 503.616 235.776 503.441 238.158C503.266 240.541 502.569 242.856 501.398 244.938L496.629 253.419C496.629 253.419 489.068 285.547 481.106 292.072L462.527 313.539L447.797 307.124L462.185 281.463C462.185 281.463 468.298 268.383 466.608 261.242C465.573 256.869 468.126 242.835 471.845 231.706C472.53 229.687 473.607 227.822 475.014 226.22C476.42 224.617 478.129 223.308 480.043 222.367C481.956 221.425 484.036 220.871 486.164 220.735C488.293 220.598 490.427 220.883 492.444 221.573V221.573Z" fill="#3F3D56"/>
<path d="M511.318 206.346C521.804 206.346 530.305 197.846 530.305 187.36C530.305 176.874 521.804 168.374 511.318 168.374C500.832 168.374 492.332 176.874 492.332 187.36C492.332 197.846 500.832 206.346 511.318 206.346Z" fill="#A0616A"/>
<path d="M494.788 170.276C495.072 168.699 495.708 167.206 496.647 165.907C497.12 165.345 497.707 164.888 498.368 164.568C499.03 164.248 499.751 164.071 500.486 164.048C501.221 164.026 501.952 164.159 502.632 164.439C503.311 164.718 503.924 165.138 504.431 165.67C504.134 164.807 504.048 163.886 504.179 162.983C505.566 163.648 507.049 164.089 508.574 164.29L505.205 160.772C512.126 157.697 517.846 157.863 521.976 162.313C523.158 163.587 525.578 162.697 526.849 164.012C528.12 165.327 528.191 168.134 526.584 168.867C529.75 167.675 533.385 169.405 535.474 172.305C537.563 175.204 538.332 179.028 538.473 182.738C538.656 187.549 537.759 192.67 534.823 196.212C532.902 198.528 530.284 199.973 528.159 202.056L528.095 202.119C525.768 204.506 522.85 206.235 519.639 207.13C516.427 208.024 513.036 208.053 509.81 207.213C509.447 207.113 509.087 207.003 508.726 206.9C506.919 207.717 504.668 206.6 503.527 204.782C502.31 202.844 502.07 200.364 502.018 198.002C501.951 194.913 502.141 191.823 502.587 188.766C503.09 185.323 503.544 180.913 500.817 179.184C498.694 177.837 496.056 179.166 493.919 180.484C493.713 177.057 494.006 173.619 494.788 170.276V170.276Z" fill="#2F2E41"/>
</svg>
