<svg viewBox="0 0 641 589" fill="none" xmlns="http://www.w3.org/2000/svg">
<path d="M516.955 377.635C516.389 376.658 516.045 375.569 515.945 374.445C515.846 373.32 515.994 372.188 516.38 371.127C516.765 370.066 517.379 369.103 518.177 368.305C518.975 367.506 519.939 366.893 521 366.508L520.602 339.072L532.618 346.748L531.154 371.625C531.683 373.45 531.525 375.406 530.708 377.122C529.892 378.839 528.474 380.196 526.724 380.936C524.974 381.677 523.013 381.75 521.212 381.142C519.412 380.533 517.897 379.286 516.955 377.635V377.635Z" fill="#A0616A"/>
<path d="M502.474 228.679C498.912 229.309 495.679 231.153 493.324 233.899C490.969 236.644 489.639 240.121 489.56 243.737C489.386 251.767 492.065 254.761 495.852 255.843C502.852 257.843 514 298.291 514 298.291C514 298.291 515.183 336.017 517.092 334.154C519 332.291 516.84 336.638 517.42 337.965C518 339.291 514.671 341.278 517.836 342.784C521 344.291 519 356.291 519 356.291L533 355.291C533 355.291 530.676 345.515 533.838 344.903C537 344.291 535.563 341.509 534.282 339.4C533 337.291 536.549 334.285 534.775 333.288C533 332.291 538 293.291 538 293.291L518.451 235.771C516.797 233.133 514.392 231.049 511.546 229.785C508.699 228.522 505.541 228.136 502.474 228.679V228.679Z" fill="#3849DD"/>
<path d="M460 230.943L470.071 213.291H483.677L493.882 231.943L460 230.943Z" fill="#3849DD"/>
<path d="M432.911 72.206C424.864 45.2516 402.131 27.655 374.66 23.7948C374.358 23.7522 374.071 23.8084 373.77 23.789C373.381 23.6702 372.984 23.5788 372.583 23.5155C334.805 18.633 293.565 27.3775 260.742 47.9143C229.28 67.5998 193.129 78.7073 156.016 78.4605C154.864 78.4529 153.707 78.4779 152.545 78.5355C123.984 79.9607 98.7789 100.751 91.0577 128.096C90.0444 131.684 91.8101 134.89 94.6496 136.923C99.6389 140.496 103.047 143.001 109.186 144.301C120.139 146.622 131.13 148.756 142.158 150.703V106.774C142.163 102.615 143.817 98.6279 146.758 95.6872C149.699 92.7465 153.686 91.0923 157.845 91.0874H373.314C377.472 91.0923 381.459 92.7465 384.4 95.6872C387.341 98.6279 388.995 102.615 389 106.774V161.481C391.955 160.557 394.84 159.421 397.632 158.083C408.027 152.949 416.907 145.2 423.401 135.596C435.875 117.496 439.17 93.1696 432.911 72.206Z" fill="#F2F2F2"/>
<path d="M342.19 329.291H151.713C147.317 329.286 143.103 327.538 139.995 324.43C136.887 321.321 135.139 317.107 135.134 312.712V238.801C111.934 231.699 87.499 229.558 63.4172 232.515C63.0155 232.579 62.6186 232.67 62.2297 232.789C61.9288 232.808 61.642 232.752 61.3398 232.795C33.8693 236.655 11.1355 254.252 3.08856 281.206C-3.17035 302.17 0.124452 326.496 12.5991 344.596C19.093 354.2 27.9732 361.949 38.3676 367.083C52.6549 373.965 67.6929 374.483 83.2867 374.969C130.107 376.43 176.972 374.658 223.548 369.667C246.469 367.209 269.295 363.996 292.026 360.029C303.661 357.993 315.257 355.75 326.814 353.301C332.953 352.001 336.361 349.496 341.35 345.923C344.19 343.89 345.956 340.684 344.942 337.096C344.189 334.439 343.27 331.832 342.19 329.291V329.291Z" fill="#F2F2F2"/>
<path d="M359.047 307.364H172.111C168.503 307.36 165.044 305.925 162.493 303.373C159.942 300.822 158.507 297.363 158.502 293.755V120.032C158.507 116.424 159.942 112.965 162.493 110.414C165.044 107.862 168.503 106.427 172.111 106.423H359.047C362.655 106.427 366.114 107.862 368.665 110.414C371.217 112.965 372.652 116.424 372.656 120.032V293.755C372.652 297.363 371.217 300.822 368.665 303.373C366.114 305.925 362.655 307.36 359.047 307.364V307.364Z" fill="#E6E6E6"/>
<path d="M319.703 298.185H181.293C177.685 298.18 174.226 296.745 171.675 294.194C169.123 291.643 167.688 288.184 167.684 284.576V129.219C167.688 125.611 169.123 122.152 171.675 119.6C174.226 117.049 177.685 115.614 181.293 115.61H349.868C353.476 115.614 356.935 117.049 359.486 119.6C362.037 122.152 363.472 125.611 363.477 129.219V254.411C363.464 266.016 358.847 277.143 350.641 285.349C342.435 293.555 331.308 298.171 319.703 298.185V298.185Z" fill="white"/>
<path d="M265.58 267.897C299.27 267.897 326.58 240.587 326.58 206.897C326.58 173.208 299.27 145.897 265.58 145.897C231.891 145.897 204.58 173.208 204.58 206.897C204.58 240.587 231.891 267.897 265.58 267.897Z" fill="#3849DD"/>
<path d="M291.277 203.828L270.921 179.074C270.369 178.403 269.677 177.859 268.894 177.482C268.111 177.104 267.255 176.901 266.386 176.886C265.516 176.872 264.654 177.046 263.859 177.398C263.064 177.75 262.355 178.27 261.781 178.923L240.012 203.677C238.964 204.872 238.432 206.435 238.535 208.022C238.638 209.608 239.366 211.09 240.56 212.14C241.754 213.19 243.317 213.723 244.903 213.622C246.49 213.521 247.972 212.794 249.024 211.602L260.287 198.794V230.909C260.287 232.5 260.919 234.027 262.044 235.152C263.169 236.277 264.695 236.909 266.287 236.909C267.878 236.909 269.404 236.277 270.529 235.152C271.654 234.027 272.287 232.5 272.287 230.909V199.628L282.008 211.45C283.019 212.679 284.477 213.457 286.06 213.611C287.644 213.765 289.225 213.284 290.454 212.273C291.683 211.263 292.46 209.805 292.614 208.221C292.769 206.638 292.288 205.057 291.277 203.828L291.277 203.828Z" fill="white"/>
<path d="M528.453 578.324L519.404 578.323L515.099 543.416L528.456 543.417L528.453 578.324Z" fill="#A0616A"/>
<path d="M528.772 587.764L500.943 587.763V587.411C500.943 584.539 502.084 581.784 504.116 579.752C506.147 577.721 508.902 576.58 511.775 576.58H511.776L516.859 572.723L526.343 576.58L528.773 576.58L528.772 587.764Z" fill="#2F2E41"/>
<path d="M460.453 578.324L451.404 578.323L447.099 543.416L460.456 543.417L460.453 578.324Z" fill="#A0616A"/>
<path d="M460.772 587.764L432.943 587.763V587.411C432.943 584.539 434.084 581.784 436.116 579.752C438.147 577.721 440.902 576.58 443.775 576.58H443.776L448.859 572.723L458.343 576.58L460.773 576.58L460.772 587.764Z" fill="#2F2E41"/>
<path d="M531.339 549.434C534.641 547.276 532.728 547.416 532.728 547.416C532.728 547.416 525.345 487.556 519.728 469.416L513.228 381.079C513.228 381.079 512.816 382.842 513.228 378.559C513.641 374.276 516.641 377.276 513.641 374.276C510.641 371.276 508.641 369.747 510.641 367.512C512.641 365.276 518.158 360.753 514.899 358.014C511.641 355.276 505.228 337.416 505.228 337.416L442.728 337.916L445.228 337.416C445.228 337.416 437.426 334.521 441 338.291C444.574 342.061 439 351.291 437 360.291C435.344 367.745 430.426 369.723 437 371.291C443.574 372.859 437.625 377.302 437.625 377.302C437.625 377.302 427.728 424.416 435.228 455.416C435.228 455.416 440.402 532.088 443.022 538.682C445.641 545.276 446.641 541.276 445.641 545.276C444.641 549.276 442.641 542.276 444.641 549.276C445.732 552.932 446.596 556.653 447.228 560.416L460.79 559.416C460.79 559.416 463.94 549.489 460.79 546.882C457.641 544.276 459.816 551.882 463.228 546.079C466.641 540.276 462.641 542.276 461.641 534.276C460.641 526.276 469.816 489.008 463.228 466.142L475.402 401.979L494.728 468.416C494.728 468.416 504.979 549.556 508.31 552.416C511.641 555.276 510.296 548.334 511.641 555.276C513 562.291 516.087 560.431 516 561.291C515.069 570.463 531.339 561.416 531.339 561.416C531.18 559.085 531.18 556.747 531.339 554.416C531.641 552.276 528.038 551.591 531.339 549.434Z" fill="#2F2E41"/>
<path d="M449 358.291C445 358.291 434 352.874 436 350.582C438 348.291 438 340.685 438 338.488C438 336.291 447 255.291 447 255.291L446.316 235.459C446.275 234.27 446.474 233.085 446.901 231.975C447.327 230.864 447.973 229.851 448.8 228.996C449.626 228.14 450.616 227.46 451.711 226.995C452.806 226.53 453.984 226.291 455.173 226.291L464 223.291L489 222.291L501.466 226.291C502.703 226.291 503.92 226.608 504.999 227.213C506.078 227.818 506.984 228.689 507.63 229.744C508.276 230.799 508.64 232.001 508.688 233.237C508.736 234.473 508.466 235.701 507.904 236.803V236.803C514.519 247.603 517.839 260.098 517.456 272.757C517.17 282.229 512.371 293.795 511.215 304.495C511.113 305.435 511.04 306.367 511 307.291C510.989 307.549 508.942 308.832 510.971 308.062C513 307.291 509.884 310.011 510.942 311.651C512 313.291 514.051 312.286 511.026 314.289C508 316.291 514.658 335.633 514 336.291C512 338.291 508 339.291 511 342.291C514 345.291 517 343.291 513 347.291C509 351.291 497.016 358.291 497.016 358.291L449 358.291Z" fill="#3F3D56"/>
<path d="M475.734 210.679C487.621 210.679 497.257 201.042 497.257 189.156C497.257 177.269 487.621 167.632 475.734 167.632C463.847 167.632 454.211 177.269 454.211 189.156C454.211 201.042 463.847 210.679 475.734 210.679Z" fill="#A0616A"/>
<path d="M344.644 255.935C345.676 255.479 346.796 255.254 347.925 255.277C349.053 255.301 350.163 255.571 351.176 256.07C352.189 256.568 353.08 257.283 353.786 258.163C354.493 259.043 354.998 260.068 355.266 261.164L382.583 263.748L373.647 274.859L349.077 270.702C347.205 271.03 345.277 270.66 343.66 269.662C342.043 268.664 340.848 267.108 340.301 265.287C339.755 263.467 339.895 261.51 340.695 259.786C341.496 258.062 342.901 256.692 344.644 255.935V255.935Z" fill="#A0616A"/>
<path d="M474.164 239.913C473.534 236.351 471.69 233.118 468.944 230.763C466.198 228.408 462.722 227.078 459.106 226.999C451.076 226.825 448.082 229.504 447 233.291C445 240.291 412.803 264.897 412.803 264.897L385.152 261.905C383.489 261.365 384.278 259.85 378.026 261.134C374.947 259.117 372.956 259.459 371.241 260.399L361 259.291L362 275.291C362 275.291 372.963 272.683 375 277.291C377.037 281.899 376.57 282.561 381 279.291C385.43 276.021 385 279.291 385 279.291L417 287.291L467.071 255.89C469.71 254.236 471.794 251.831 473.058 248.985C474.321 246.138 474.706 242.98 474.164 239.913H474.164Z" fill="#3849DD"/>
<path d="M484.09 208.371L485.5 208.821C481.09 209.191 473.23 211.651 474 210.291C474.77 208.931 471.86 203.801 473.28 203.151C474.756 202.633 476.072 201.741 477.1 200.561C478 199.301 477.98 197.221 476.63 196.451C475.32 195.691 473.7 196.511 472.4 197.281C471.09 198.041 468.67 186.861 469.29 183.371C465.64 181.371 461.22 185.201 457.12 184.451C454.61 183.991 452.8 181.931 451.66 179.591C453.522 177.824 454.908 175.616 455.69 173.171C453.949 174.048 452.09 174.664 450.17 175.001C449.826 173.185 449.873 171.317 450.31 169.521C450.645 168.087 451.328 166.759 452.3 165.653C453.272 164.547 454.501 163.698 455.88 163.181C457.279 162.717 458.794 162.744 460.175 163.256C461.557 163.769 462.722 164.737 463.48 166.001C463.565 164.64 463.215 163.287 462.482 162.137C461.749 160.986 460.67 160.099 459.4 159.601C460.327 159.12 461.352 158.86 462.396 158.841C463.439 158.821 464.474 159.043 465.417 159.49C466.361 159.936 467.189 160.594 467.836 161.413C468.484 162.232 468.933 163.19 469.15 164.211C473.666 161.948 478.848 161.394 483.74 162.651C488.58 163.921 495 169.291 495 169.291C505.92 171.701 505.4 213.221 484.09 208.371Z" fill="#2F2E41"/>
<path d="M598.116 579.183C598.366 579.194 598.612 579.129 598.823 578.995C599.034 578.862 599.198 578.667 599.295 578.437C599.391 578.207 599.414 577.953 599.361 577.709C599.308 577.465 599.181 577.244 598.998 577.074L598.915 576.743L598.948 576.664C599.199 576.071 599.619 575.565 600.157 575.211C600.694 574.856 601.324 574.668 601.968 574.671C602.612 574.673 603.241 574.866 603.775 575.224C604.31 575.583 604.727 576.091 604.973 576.686C605.959 579.059 607.214 581.437 607.523 583.947C607.659 585.056 607.601 586.181 607.353 587.27C609.668 582.221 610.87 576.733 610.877 571.179C610.878 569.785 610.8 568.392 610.645 567.007C610.517 565.871 610.339 564.744 610.112 563.625C608.871 557.551 606.208 551.858 602.34 547.014C600.468 545.992 598.954 544.421 598.002 542.513C597.657 541.827 597.413 541.095 597.278 540.339C597.689 539.257 597.904 538.11 597.915 536.953C598.21 536.506 598.736 536.284 599.058 535.849C600.656 533.681 602.859 534.06 604.009 537.005C606.465 538.245 606.488 540.3 604.981 542.278C604.023 543.535 603.891 545.238 603.05 546.584C603.136 546.695 603.226 546.802 603.313 546.913C604.895 548.948 606.274 551.132 607.43 553.436C607.149 550.855 607.484 548.245 608.409 545.819C609.346 543.559 611.102 541.655 612.649 539.701C613.058 539.176 613.614 538.784 614.245 538.574C614.877 538.365 615.557 538.348 616.198 538.525C616.84 538.702 617.415 539.065 617.85 539.568C618.285 540.072 618.561 540.693 618.644 541.353L618.653 541.44C618.423 541.569 618.198 541.707 617.978 541.852C617.702 542.037 617.488 542.301 617.364 542.61C617.24 542.918 617.212 543.257 617.284 543.581C617.356 543.906 617.524 544.201 617.767 544.428C618.009 544.656 618.315 544.804 618.644 544.855L618.677 544.86C618.595 545.688 618.451 546.509 618.245 547.315C620.229 554.988 615.945 557.783 609.828 557.909C609.693 557.978 609.562 558.047 609.427 558.113C610.588 561.404 611.317 564.833 611.594 568.312C611.751 570.365 611.742 572.427 611.566 574.478L611.577 574.405C612.02 572.124 613.237 570.066 615.021 568.579C617.672 566.401 621.418 565.599 624.277 563.849C624.581 563.654 624.935 563.55 625.296 563.549C625.657 563.548 626.011 563.65 626.316 563.844C626.621 564.037 626.864 564.314 627.017 564.642C627.169 564.969 627.225 565.333 627.178 565.691L627.166 565.768C626.74 565.941 626.325 566.141 625.923 566.366C625.694 566.496 625.469 566.634 625.249 566.779C624.972 566.964 624.758 567.228 624.634 567.536C624.51 567.845 624.482 568.183 624.554 568.508C624.626 568.833 624.795 569.128 625.037 569.355C625.28 569.582 625.585 569.731 625.914 569.782L625.948 569.787L626.017 569.797C625.288 571.537 624.266 573.138 622.994 574.53C621.754 581.229 616.425 581.864 610.725 579.913H610.721C610.096 582.631 609.19 585.277 608.018 587.807H598.358C598.324 587.7 598.293 587.589 598.261 587.482C599.156 587.538 600.053 587.484 600.934 587.322C600.218 586.443 599.501 585.557 598.784 584.677C598.768 584.661 598.753 584.643 598.739 584.625C598.376 584.175 598.009 583.729 597.645 583.279L597.645 583.278C597.626 581.899 597.784 580.522 598.116 579.183L598.116 579.183Z" fill="#F2F2F2"/>
<path d="M256.618 422.291C253.82 422.291 251.086 421.461 248.759 419.907C246.433 418.353 244.62 416.144 243.549 413.559C242.479 410.974 242.199 408.13 242.744 405.386C243.29 402.642 244.638 400.121 246.616 398.143C248.594 396.165 251.115 394.818 253.859 394.272C256.602 393.726 259.447 394.006 262.031 395.077C264.616 396.147 266.825 397.96 268.38 400.287C269.934 402.613 270.764 405.348 270.764 408.146C270.759 411.896 269.268 415.491 266.616 418.143C263.964 420.795 260.368 422.287 256.618 422.291V422.291ZM256.618 396C254.216 396 251.868 396.712 249.871 398.047C247.873 399.381 246.316 401.278 245.397 403.498C244.478 405.717 244.237 408.159 244.706 410.515C245.175 412.871 246.331 415.035 248.03 416.734C249.729 418.432 251.893 419.589 254.249 420.058C256.605 420.526 259.047 420.286 261.266 419.367C263.485 418.447 265.382 416.891 266.717 414.893C268.051 412.896 268.764 410.548 268.764 408.146C268.76 404.925 267.479 401.838 265.202 399.561C262.925 397.284 259.838 396.004 256.618 396V396Z" fill="#F2F2F2"/>
<path d="M262.156 407.484L257.769 402.149C257.65 402.005 257.501 401.888 257.332 401.806C257.163 401.725 256.979 401.681 256.792 401.678C256.604 401.675 256.419 401.712 256.247 401.788C256.076 401.864 255.923 401.976 255.799 402.117L251.108 407.451C250.884 407.709 250.771 408.045 250.794 408.386C250.816 408.727 250.973 409.045 251.23 409.271C251.487 409.496 251.822 409.611 252.163 409.59C252.504 409.57 252.823 409.414 253.05 409.159L255.477 406.399V413.32C255.477 413.663 255.613 413.992 255.856 414.234C256.098 414.477 256.427 414.613 256.77 414.613C257.113 414.613 257.442 414.477 257.685 414.234C257.927 413.992 258.063 413.663 258.063 413.32V406.579L260.158 409.127C260.376 409.391 260.69 409.559 261.032 409.592C261.373 409.625 261.713 409.522 261.978 409.304C262.243 409.086 262.411 408.772 262.444 408.431C262.477 408.089 262.373 407.749 262.156 407.484H262.156Z" fill="#F2F2F2"/>
<path d="M417.618 213.291C414.82 213.291 412.086 212.461 409.759 210.907C407.433 209.353 405.62 207.144 404.549 204.559C403.479 201.974 403.199 199.13 403.744 196.386C404.29 193.642 405.638 191.121 407.616 189.143C409.594 187.165 412.115 185.818 414.859 185.272C417.603 184.726 420.447 185.006 423.031 186.077C425.616 187.147 427.825 188.96 429.38 191.287C430.934 193.613 431.764 196.348 431.764 199.145C431.759 202.896 430.268 206.491 427.616 209.143C424.964 211.795 421.369 213.287 417.618 213.291V213.291ZM417.618 187C415.216 187 412.868 187.712 410.871 189.047C408.873 190.381 407.316 192.278 406.397 194.498C405.478 196.717 405.237 199.159 405.706 201.515C406.175 203.871 407.331 206.035 409.03 207.734C410.729 209.432 412.893 210.589 415.249 211.058C417.605 211.526 420.047 211.286 422.266 210.367C424.485 209.447 426.382 207.891 427.717 205.893C429.051 203.896 429.764 201.548 429.764 199.145C429.76 195.925 428.479 192.838 426.202 190.561C423.925 188.284 420.838 187.004 417.618 187V187Z" fill="#F2F2F2"/>
<path d="M423.156 198.484L418.769 193.149C418.65 193.005 418.501 192.888 418.332 192.806C418.163 192.725 417.979 192.681 417.792 192.678C417.604 192.675 417.419 192.712 417.247 192.788C417.076 192.864 416.923 192.976 416.799 193.117L412.108 198.451C411.884 198.709 411.771 199.045 411.794 199.386C411.816 199.727 411.973 200.045 412.23 200.271C412.487 200.496 412.822 200.611 413.163 200.59C413.504 200.57 413.823 200.414 414.05 200.159L416.477 197.399V204.32C416.477 204.663 416.613 204.992 416.856 205.234C417.098 205.477 417.427 205.613 417.77 205.613C418.113 205.613 418.442 205.477 418.685 205.234C418.927 204.992 419.063 204.663 419.063 204.32V197.579L421.158 200.127C421.376 200.391 421.69 200.559 422.032 200.592C422.373 200.625 422.713 200.522 422.978 200.304C423.243 200.086 423.411 199.772 423.444 199.431C423.477 199.089 423.373 198.749 423.156 198.484L423.156 198.484Z" fill="#F2F2F2"/>
<path d="M98.6182 201.291C95.8205 201.291 93.0856 200.461 90.7594 198.907C88.4331 197.353 86.6201 195.144 85.5494 192.559C84.4788 189.974 84.1987 187.13 84.7445 184.386C85.2903 181.642 86.6375 179.121 88.6158 177.143C90.5941 175.165 93.1145 173.818 95.8585 173.272C98.6025 172.726 101.447 173.006 104.031 174.077C106.616 175.147 108.825 176.96 110.38 179.287C111.934 181.613 112.764 184.348 112.764 187.145C112.759 190.896 111.268 194.491 108.616 197.143C105.964 199.795 102.368 201.287 98.6182 201.291V201.291ZM98.6182 175C96.216 175 93.8678 175.712 91.8705 177.047C89.8732 178.381 88.3164 180.278 87.3972 182.498C86.4779 184.717 86.2374 187.159 86.706 189.515C87.1747 191.871 88.3314 194.035 90.03 195.734C91.7286 197.432 93.8927 198.589 96.2487 199.058C98.6047 199.526 101.047 199.286 103.266 198.367C105.485 197.447 107.382 195.891 108.717 193.893C110.051 191.896 110.764 189.548 110.764 187.145C110.76 183.925 109.479 180.838 107.202 178.561C104.925 176.284 101.838 175.004 98.6182 175V175Z" fill="#F2F2F2"/>
<path d="M104.156 186.484L99.769 181.149C99.65 181.005 99.5009 180.888 99.3322 180.806C99.1634 180.725 98.979 180.681 98.7917 180.678C98.6043 180.675 98.4186 180.712 98.2472 180.788C98.0759 180.864 97.923 180.976 97.7993 181.117L93.1081 186.451C92.8839 186.709 92.7708 187.045 92.7937 187.386C92.8165 187.727 92.9734 188.045 93.2299 188.271C93.4865 188.496 93.822 188.611 94.163 188.59C94.5041 188.57 94.823 188.414 95.0501 188.159L97.4772 185.399V192.32C97.4772 192.663 97.6134 192.992 97.8559 193.234C98.0984 193.477 98.4273 193.613 98.7702 193.613C99.1132 193.613 99.442 193.477 99.6845 193.234C99.927 192.992 100.063 192.663 100.063 192.32V185.579L102.158 188.127C102.376 188.391 102.69 188.559 103.032 188.592C103.373 188.625 103.713 188.522 103.978 188.304C104.243 188.086 104.411 187.772 104.444 187.431C104.477 187.089 104.373 186.749 104.156 186.484L104.156 186.484Z" fill="#F2F2F2"/>
<path d="M211.618 28.291C208.82 28.291 206.086 27.4614 203.759 25.9071C201.433 24.3528 199.62 22.1435 198.549 19.5588C197.479 16.974 197.199 14.1298 197.744 11.3859C198.29 8.64191 199.637 6.12142 201.616 4.14314C203.594 2.16485 206.115 0.817621 208.859 0.271812C211.602 -0.273996 214.447 0.00611925 217.031 1.07676C219.616 2.1474 221.825 3.96047 223.38 6.28669C224.934 8.61291 225.764 11.3478 225.764 14.1455C225.759 17.8958 224.268 21.4913 221.616 24.1432C218.964 26.7951 215.368 28.2868 211.618 28.291ZM211.618 2.00002C209.216 2.00002 206.868 2.71235 204.87 4.04691C202.873 5.38148 201.316 7.27834 200.397 9.49764C199.478 11.7169 199.237 14.159 199.706 16.515C200.175 18.871 201.331 21.0351 203.03 22.7337C204.729 24.4323 206.893 25.589 209.249 26.0577C211.605 26.5263 214.047 26.2858 216.266 25.3665C218.485 24.4473 220.382 22.8905 221.717 20.8932C223.051 18.8959 223.764 16.5477 223.764 14.1455C223.76 10.9254 222.479 7.83824 220.202 5.56129C217.925 3.28434 214.838 2.00358 211.618 2.00001V2.00002Z" fill="#F2F2F2"/>
<path d="M217.156 13.484L212.769 8.14942C212.65 8.00472 212.501 7.88761 212.332 7.80619C212.163 7.72478 211.979 7.68101 211.792 7.67791C211.604 7.67481 211.419 7.71245 211.247 7.78823C211.076 7.86401 210.923 7.97612 210.799 8.1168L206.108 13.4513C205.884 13.7092 205.771 14.0453 205.794 14.3862C205.816 14.7272 205.973 15.0452 206.23 15.2708C206.487 15.4965 206.822 15.6114 207.163 15.5905C207.504 15.5695 207.823 15.4145 208.05 15.1592L210.477 12.3992V19.32C210.477 19.663 210.613 19.9918 210.856 20.2343C211.098 20.4768 211.427 20.613 211.77 20.613C212.113 20.613 212.442 20.4768 212.685 20.2343C212.927 19.9918 213.063 19.663 213.063 19.32V12.5789L215.158 15.1266C215.376 15.3915 215.69 15.5589 216.032 15.5922C216.373 15.6255 216.713 15.5218 216.978 15.304C217.243 15.0862 217.411 14.772 217.444 14.4307C217.477 14.0894 217.373 13.7489 217.156 13.484L217.156 13.484Z" fill="#F2F2F2"/>
<path d="M60.6182 306.291C57.8204 306.291 55.0854 305.461 52.7591 303.907C50.4328 302.353 48.6197 300.144 47.549 297.559C46.4783 294.974 46.1982 292.13 46.744 289.386C47.2898 286.642 48.637 284.121 50.6154 282.143C52.5937 280.164 55.1143 278.817 57.8583 278.271C60.6023 277.726 63.4466 278.006 66.0314 279.076C68.6162 280.147 70.8254 281.96 72.3798 284.286C73.9341 286.613 74.7637 289.348 74.7637 292.145C74.7594 295.896 73.2677 299.491 70.6159 302.143C67.964 304.795 64.3685 306.287 60.6182 306.291ZM60.6182 280C58.216 279.999 55.8677 280.712 53.8703 282.046C51.8729 283.381 50.3161 285.278 49.3968 287.497C48.4775 289.716 48.2369 292.158 48.7055 294.515C49.1741 296.871 50.3308 299.035 52.0294 300.733C53.728 302.432 55.8921 303.589 58.2482 304.058C60.6042 304.526 63.0463 304.286 65.2657 303.367C67.485 302.447 69.382 300.891 70.7166 298.893C72.0513 296.896 72.7636 294.548 72.7637 292.146C72.7601 288.925 71.4794 285.838 69.2024 283.561C66.9255 281.284 63.8383 280.003 60.6182 280V280Z" fill="white"/>
<path d="M66.1558 291.484L61.769 286.149C61.65 286.005 61.5009 285.888 61.3322 285.806C61.1634 285.725 60.979 285.681 60.7917 285.678C60.6043 285.675 60.4186 285.712 60.2472 285.788C60.0759 285.864 59.923 285.976 59.7993 286.117L55.1081 291.451C54.8839 291.709 54.7708 292.045 54.7937 292.386C54.8165 292.727 54.9734 293.045 55.2299 293.271C55.4865 293.496 55.822 293.611 56.163 293.59C56.5041 293.57 56.823 293.414 57.0501 293.159L59.4772 290.399V297.32C59.4772 297.663 59.6134 297.992 59.8559 298.234C60.0984 298.477 60.4273 298.613 60.7702 298.613C61.1132 298.613 61.442 298.477 61.6845 298.234C61.927 297.992 62.0632 297.663 62.0632 297.32V290.579L64.1583 293.127C64.3761 293.391 64.6902 293.559 65.0315 293.592C65.3728 293.625 65.7134 293.522 65.9783 293.304C66.2431 293.086 66.4106 292.772 66.4439 292.431C66.4772 292.089 66.3735 291.749 66.1557 291.484L66.1558 291.484Z" fill="white"/>
<path d="M366.618 69.291C363.82 69.2911 361.085 68.4615 358.759 66.9071C356.433 65.3528 354.62 63.1435 353.549 60.5587C352.478 57.9739 352.198 55.1297 352.744 52.3856C353.29 49.6416 354.637 47.121 356.615 45.1427C358.594 43.1644 361.114 41.8171 363.858 41.2713C366.602 40.7255 369.447 41.0057 372.031 42.0763C374.616 43.147 376.825 44.9602 378.38 47.2865C379.934 49.6127 380.764 52.3477 380.764 55.1455C380.759 58.8958 379.268 62.4913 376.616 65.1432C373.964 67.7951 370.368 69.2868 366.618 69.291V69.291ZM366.618 42.9995C364.216 42.9995 361.868 43.7118 359.87 45.0463C357.873 46.3809 356.316 48.2777 355.397 50.4971C354.477 52.7164 354.237 55.1585 354.706 57.5145C355.174 59.8706 356.331 62.0348 358.029 63.7334C359.728 65.4321 361.892 66.5889 364.248 67.0576C366.604 67.5263 369.046 67.2858 371.266 66.3666C373.485 65.4473 375.382 63.8906 376.717 61.8933C378.051 59.896 378.764 57.5477 378.764 55.1455C378.76 51.9254 377.479 48.8381 375.202 46.5611C372.926 44.2841 369.838 43.0032 366.618 42.9995V42.9995Z" fill="white"/>
<path d="M372.156 54.484L367.769 49.1494C367.65 49.0047 367.501 48.8876 367.332 48.8062C367.163 48.7248 366.979 48.681 366.792 48.6779C366.604 48.6748 366.419 48.7125 366.247 48.7882C366.076 48.864 365.923 48.9761 365.799 49.1168L361.108 54.4513C360.884 54.7092 360.771 55.0453 360.794 55.3862C360.816 55.7272 360.973 56.0452 361.23 56.2708C361.487 56.4965 361.822 56.6114 362.163 56.5905C362.504 56.5695 362.823 56.4145 363.05 56.1592L365.477 53.3992V60.32C365.477 60.663 365.613 60.9918 365.856 61.2343C366.098 61.4768 366.427 61.613 366.77 61.613C367.113 61.613 367.442 61.4768 367.685 61.2343C367.927 60.9918 368.063 60.663 368.063 60.32V53.5789L370.158 56.1266C370.376 56.3915 370.69 56.5589 371.032 56.5922C371.373 56.6255 371.713 56.5218 371.978 56.304C372.243 56.0862 372.411 55.772 372.444 55.4307C372.477 55.0894 372.373 54.7489 372.156 54.484L372.156 54.484Z" fill="white"/>
</svg>
