<?xml version="1.0" standalone="no"?>
<!DOCTYPE svg PUBLIC "-//W3C//DTD SVG 20010904//EN"
 "http://www.w3.org/TR/2001/REC-SVG-20010904/DTD/svg10.dtd">
<svg version="1.0" xmlns="http://www.w3.org/2000/svg"
 width="512.000000pt" height="512.000000pt" viewBox="0 0 512.000000 512.000000"
 preserveAspectRatio="xMidYMid meet">
<metadata>
Created by potrace 1.14, written by Peter Selinger 2001-2017
</metadata>
<g transform="translate(0.000000,512.000000) scale(0.100000,-0.100000)"
fill="#000000" stroke="none">
<path d="M826 4694 c-93 -23 -183 -72 -250 -139 -77 -75 -120 -150 -146 -251
-20 -75 -20 -114 -20 -1743 0 -1836 -3 -1725 63 -1860 42 -86 141 -187 225
-229 134 -66 28 -63 1897 -60 l1690 3 69 27 c175 68 291 197 336 374 20 75 20
116 20 1743 0 1835 3 1726 -62 1859 -39 78 -131 175 -210 220 -31 18 -91 41
-134 52 -76 20 -113 20 -1748 19 -1411 -1 -1680 -3 -1730 -15z m3459 -279 c60
-29 119 -94 138 -150 16 -44 17 -189 17 -1705 0 -1870 7 -1714 -80 -1800 -86
-87 70 -80 -1800 -80 -1870 0 -1714 -7 -1800 80 -87 86 -80 -71 -79 1804 0
1245 3 1669 12 1693 26 69 75 123 140 154 l62 29 1675 -2 c1646 -3 1676 -3
1715 -23z"/>
<path d="M1040 3395 l0 -155 285 0 285 0 0 -800 0 -800 200 0 200 0 0 800 0
800 170 0 170 0 0 -800 0 -800 195 0 195 0 0 800 0 800 170 0 170 0 0 -800 0
-800 195 0 195 0 0 800 0 800 295 0 295 0 0 155 0 155 -1510 0 -1510 0 0 -155z"/>
</g>
</svg>
