<svg width="64" height="64" viewBox="0 0 64 64" fill="none" xmlns="http://www.w3.org/2000/svg">
<path d="M32.4453 21.8086H23.7344V45.5H17.875V21.8086H9.28125V17.0625H32.4453V21.8086ZM43.3234 21.8086H34.6125V45.5H28.7531V21.8086H20.1594V17.0625H43.3234V21.8086ZM54.2016 21.8086H45.4906V45.5H39.6313V21.8086H31.0375V17.0625H54.2016V21.8086Z" fill="black"/>
<path d="M8 4H56V-4H8V4ZM60 8V56H68V8H60ZM56 60H8V68H56V60ZM4 56V8H-4V56H4ZM8 60C5.79086 60 4 58.2091 4 56H-4C-4 62.6274 1.37258 68 8 68V60ZM60 56C60 58.2091 58.2091 60 56 60V68C62.6274 68 68 62.6274 68 56H60ZM56 4C58.2091 4 60 5.79086 60 8H68C68 1.37258 62.6274 -4 56 -4V4ZM8 -4C1.37258 -4 -4 1.37258 -4 8H4C4 5.79086 5.79086 4 8 4V-4Z" fill="black"/>
</svg>
